<svg width="209" height="190" viewBox="0 0 209 190" fill="none" xmlns="http://www.w3.org/2000/svg">
<rect x="55" width="100" height="100" rx="10" fill="#D00000"/>
<path d="M105 16.6667C86.5995 16.6667 71.6667 31.5995 71.6667 50C71.6667 68.4005 86.5995 83.3333 105 83.3333C123.401 83.3333 138.333 68.4005 138.333 50C138.333 31.5995 123.401 16.6667 105 16.6667ZM118.535 65.7124C117.97 65.7124 117.621 65.5376 117.097 65.2285C108.71 60.1747 98.9516 59.9597 89.3145 61.9355C88.7903 62.0699 88.1049 62.2849 87.7151 62.2849C86.4113 62.2849 85.5914 61.25 85.5914 60.1613C85.5914 58.7769 86.4113 58.1183 87.4194 57.9032C98.4274 55.4704 109.677 55.6855 119.274 61.4247C120.094 61.9489 120.578 62.4193 120.578 63.6425C120.578 64.8656 119.624 65.7124 118.535 65.7124ZM122.151 56.8952C121.452 56.8952 120.981 56.586 120.497 56.3306C112.097 51.3575 99.5699 49.3548 88.4274 52.379C87.7823 52.5538 87.4328 52.7285 86.828 52.7285C85.3898 52.7285 84.2204 51.5591 84.2204 50.121C84.2204 48.6828 84.9194 47.7285 86.3038 47.3387C90.0403 46.2903 93.8575 45.5107 99.4489 45.5107C108.172 45.5107 116.599 47.6747 123.239 51.6263C124.328 52.2715 124.758 53.1048 124.758 54.2742C124.745 55.7258 123.616 56.8952 122.151 56.8952ZM126.317 46.6532C125.618 46.6532 125.188 46.4785 124.583 46.129C115.013 40.4167 97.9032 39.0457 86.828 42.1371C86.3441 42.2715 85.7393 42.4866 85.0941 42.4866C83.3199 42.4866 81.9624 41.1021 81.9624 39.3145C81.9624 37.4866 83.0914 36.4516 84.3011 36.1021C89.0323 34.7177 94.328 34.0591 100.094 34.0591C109.906 34.0591 120.188 36.1021 127.702 40.4839C128.75 41.0887 129.435 41.922 129.435 43.5215C129.435 45.3495 127.957 46.6532 126.317 46.6532Z" fill="white"/>
<path d="M60.12 124.12L48.42 166H38.52L30.66 136.18L22.44 166L12.6 166.06L1.32 124.12H10.32L17.7 156.64L26.22 124.12H35.58L43.62 156.46L51.06 124.12H60.12ZM96.5048 148.66C96.5048 149.86 96.4248 150.94 96.2648 151.9H71.9648C72.1648 154.3 73.0048 156.18 74.4848 157.54C75.9648 158.9 77.7848 159.58 79.9448 159.58C83.0648 159.58 85.2848 158.24 86.6048 155.56H95.6648C94.7048 158.76 92.8648 161.4 90.1448 163.48C87.4248 165.52 84.0848 166.54 80.1248 166.54C76.9248 166.54 74.0448 165.84 71.4848 164.44C68.9648 163 66.9848 160.98 65.5448 158.38C64.1448 155.78 63.4448 152.78 63.4448 149.38C63.4448 145.94 64.1448 142.92 65.5448 140.32C66.9448 137.72 68.9048 135.72 71.4248 134.32C73.9448 132.92 76.8448 132.22 80.1248 132.22C83.2848 132.22 86.1048 132.9 88.5848 134.26C91.1048 135.62 93.0448 137.56 94.4048 140.08C95.8048 142.56 96.5048 145.42 96.5048 148.66ZM87.8048 146.26C87.7648 144.1 86.9848 142.38 85.4648 141.1C83.9448 139.78 82.0848 139.12 79.8848 139.12C77.8048 139.12 76.0448 139.76 74.6048 141.04C73.2048 142.28 72.3448 144.02 72.0248 146.26H87.8048ZM111.036 137.62C112.116 136.02 113.596 134.72 115.476 133.72C117.396 132.72 119.576 132.22 122.016 132.22C124.856 132.22 127.416 132.92 129.696 134.32C132.016 135.72 133.836 137.72 135.156 140.32C136.516 142.88 137.196 145.86 137.196 149.26C137.196 152.66 136.516 155.68 135.156 158.32C133.836 160.92 132.016 162.94 129.696 164.38C127.416 165.82 124.856 166.54 122.016 166.54C119.536 166.54 117.356 166.06 115.476 165.1C113.636 164.1 112.156 162.82 111.036 161.26V166H102.636V121.6H111.036V137.62ZM128.616 149.26C128.616 147.26 128.196 145.54 127.356 144.1C126.556 142.62 125.476 141.5 124.116 140.74C122.796 139.98 121.356 139.6 119.796 139.6C118.276 139.6 116.836 140 115.476 140.8C114.156 141.56 113.076 142.68 112.236 144.16C111.436 145.64 111.036 147.38 111.036 149.38C111.036 151.38 111.436 153.12 112.236 154.6C113.076 156.08 114.156 157.22 115.476 158.02C116.836 158.78 118.276 159.16 119.796 159.16C121.356 159.16 122.796 158.76 124.116 157.96C125.476 157.16 126.556 156.02 127.356 154.54C128.196 153.06 128.616 151.3 128.616 149.26ZM158.54 139.66H152.72V166H144.2V139.66H140.42V132.76H144.2V131.08C144.2 127 145.36 124 147.68 122.08C150 120.16 153.5 119.26 158.18 119.38V126.46C156.14 126.42 154.72 126.76 153.92 127.48C153.12 128.2 152.72 129.5 152.72 131.38V132.76H158.54V139.66ZM195.784 132.76L175.204 181.72H166.264L173.464 165.16L160.144 132.76H169.564L178.144 155.98L186.844 132.76H195.784Z" fill="white"/>
<path d="M202.895 128.38C203.915 128.38 204.82 128.61 205.61 129.07C206.41 129.52 207.03 130.155 207.47 130.975C207.92 131.785 208.145 132.71 208.145 133.75C208.145 134.79 207.92 135.72 207.47 136.54C207.03 137.35 206.41 137.985 205.61 138.445C204.82 138.895 203.915 139.12 202.895 139.12C201.865 139.12 200.95 138.895 200.15 138.445C199.36 137.985 198.74 137.35 198.29 136.54C197.85 135.72 197.63 134.79 197.63 133.75C197.63 132.71 197.85 131.785 198.29 130.975C198.74 130.155 199.36 129.52 200.15 129.07C200.95 128.61 201.865 128.38 202.895 128.38ZM202.895 129.145C201.995 129.145 201.21 129.335 200.54 129.715C199.87 130.085 199.355 130.62 198.995 131.32C198.635 132.01 198.455 132.82 198.455 133.75C198.455 134.67 198.635 135.48 198.995 136.18C199.355 136.87 199.87 137.41 200.54 137.8C201.21 138.18 201.995 138.37 202.895 138.37C203.785 138.37 204.565 138.18 205.235 137.8C205.905 137.41 206.42 136.87 206.78 136.18C207.14 135.48 207.32 134.67 207.32 133.75C207.32 132.82 207.14 132.01 206.78 131.32C206.42 130.62 205.905 130.085 205.235 129.715C204.575 129.335 203.795 129.145 202.895 129.145ZM202.88 130.33C202.25 130.33 201.685 130.47 201.185 130.75C200.685 131.03 200.29 131.43 200 131.95C199.72 132.46 199.58 133.055 199.58 133.735C199.58 134.415 199.72 135.015 200 135.535C200.29 136.055 200.685 136.455 201.185 136.735C201.685 137.015 202.25 137.155 202.88 137.155C203.65 137.155 204.315 136.945 204.875 136.525C205.435 136.095 205.8 135.53 205.97 134.83H204.125C204.015 135.11 203.855 135.325 203.645 135.475C203.445 135.625 203.175 135.7 202.835 135.7C202.375 135.7 202.01 135.535 201.74 135.205C201.48 134.865 201.35 134.375 201.35 133.735C201.35 133.095 201.48 132.61 201.74 132.28C202.01 131.95 202.375 131.785 202.835 131.785C203.155 131.785 203.425 131.86 203.645 132.01C203.875 132.16 204.035 132.375 204.125 132.655H205.97C205.8 131.935 205.435 131.37 204.875 130.96C204.325 130.54 203.66 130.33 202.88 130.33Z" fill="white"/>
</svg>
