<svg width="150" height="150" viewBox="0 0 150 150" fill="none" xmlns="http://www.w3.org/2000/svg">
<rect width="150" height="150" rx="10" fill="#D00000"/>
<path d="M75 25C47.3992 25 25 47.3992 25 75C25 102.601 47.3992 125 75 125C102.601 125 125 102.601 125 75C125 47.3992 102.601 25 75 25ZM95.3024 98.5685C94.4556 98.5685 93.9315 98.3064 93.1452 97.8427C80.5645 90.2621 65.9274 89.9395 51.4718 92.9032C50.6855 93.1048 49.6573 93.4274 49.0726 93.4274C47.1169 93.4274 45.8871 91.875 45.8871 90.2419C45.8871 88.1653 47.1169 87.1774 48.629 86.8548C65.1411 83.2056 82.0161 83.5282 96.4113 92.1371C97.6411 92.9234 98.3669 93.629 98.3669 95.4637C98.3669 97.2984 96.9355 98.5685 95.3024 98.5685ZM100.726 85.3427C99.6774 85.3427 98.9718 84.879 98.246 84.496C85.6452 77.0363 66.8548 74.0323 50.1411 78.5686C49.1734 78.8306 48.6492 79.0927 47.7419 79.0927C45.5847 79.0927 43.8306 77.3387 43.8306 75.1815C43.8306 73.0242 44.879 71.5927 46.9556 71.0081C52.5605 69.4355 58.2863 68.2661 66.6734 68.2661C79.7581 68.2661 92.3992 71.5121 102.359 77.4395C103.992 78.4073 104.637 79.6573 104.637 81.4113C104.617 83.5887 102.923 85.3427 100.726 85.3427ZM106.976 69.9798C105.927 69.9798 105.282 69.7177 104.375 69.1935C90.0202 60.625 64.3548 58.5685 47.7419 63.2056C47.0161 63.4073 46.1089 63.7298 45.1411 63.7298C42.4798 63.7298 40.4435 61.6532 40.4435 58.9718C40.4435 56.2298 42.1371 54.6774 43.9516 54.1532C51.0484 52.0766 58.9919 51.0887 67.6411 51.0887C82.3589 51.0887 97.7823 54.1532 109.052 60.7258C110.625 61.6331 111.653 62.8831 111.653 65.2823C111.653 68.0242 109.435 69.9798 106.976 69.9798Z" fill="white"/>
</svg>
