<svg width="100" height="100" viewBox="0 0 100 100" fill="none" xmlns="http://www.w3.org/2000/svg">
<path d="M50 0C22.3992 0 0 22.3992 0 50C0 77.6008 22.3992 100 50 100C77.6008 100 100 77.6008 100 50C100 22.3992 77.6008 0 50 0ZM70.3024 73.5685C69.4556 73.5685 68.9315 73.3064 68.1452 72.8427C55.5645 65.2621 40.9274 64.9395 26.4718 67.9032C25.6855 68.1048 24.6573 68.4274 24.0726 68.4274C22.1169 68.4274 20.8871 66.875 20.8871 65.2419C20.8871 63.1653 22.1169 62.1774 23.629 61.8548C40.1411 58.2056 57.0161 58.5282 71.4113 67.1371C72.6411 67.9234 73.3669 68.629 73.3669 70.4637C73.3669 72.2984 71.9355 73.5685 70.3024 73.5685ZM75.7258 60.3427C74.6774 60.3427 73.9718 59.879 73.246 59.496C60.6452 52.0363 41.8548 49.0323 25.1411 53.5686C24.1734 53.8306 23.6492 54.0927 22.7419 54.0927C20.5847 54.0927 18.8306 52.3387 18.8306 50.1815C18.8306 48.0242 19.879 46.5927 21.9556 46.0081C27.5605 44.4355 33.2863 43.2661 41.6734 43.2661C54.7581 43.2661 67.3992 46.5121 77.3589 52.4395C78.9919 53.4073 79.6371 54.6573 79.6371 56.4113C79.6169 58.5887 77.9234 60.3427 75.7258 60.3427ZM81.9758 44.9798C80.9274 44.9798 80.2823 44.7177 79.375 44.1935C65.0202 35.625 39.3548 33.5685 22.7419 38.2056C22.0161 38.4073 21.1089 38.7298 20.1411 38.7298C17.4798 38.7298 15.4435 36.6532 15.4435 33.9718C15.4435 31.2298 17.1371 29.6774 18.9516 29.1532C26.0484 27.0766 33.9919 26.0887 42.6411 26.0887C57.3589 26.0887 72.7823 29.1532 84.0524 35.7258C85.625 36.6331 86.6532 37.8831 86.6532 40.2823C86.6532 43.0242 84.4355 44.9798 81.9758 44.9798Z" fill="#D00000"/>
</svg>
